<svg xmlns="http://www.w3.org/2000/svg" viewBox="3824.709 1449 64.4 30.603"><defs><style>.a{fill:#fff;}</style></defs><g transform="translate(3318.009 80)"><path class="a" d="M48.593,30.6a18.91,18.91,0,0,1-2.448-.16c-6.813-.958-11.337-5.855-13.891-9.633-2.555,3.779-7.079,8.675-13.891,9.633a18.91,18.91,0,0,1-2.448.16A16.145,16.145,0,0,1,4.737,26.186,14.869,14.869,0,0,1,4.684,4.471,16.052,16.052,0,0,1,15.861,0a18.91,18.91,0,0,1,2.448.16c6.813.958,11.337,5.855,13.891,9.633C34.755,6.014,39.279,1.171,46.091.16A19.539,19.539,0,0,1,48.54,0,16.241,16.241,0,0,1,59.716,4.418a14.927,14.927,0,0,1,0,21.715A15.6,15.6,0,0,1,48.593,30.6M35.234,15.328c1.331,2.555,5.269,8.835,11.656,9.74.585.053,1.118.106,1.7.106a10.175,10.175,0,0,0,10.432-9.9,10.175,10.175,0,0,0-10.432-9.9c-.532,0-1.118.053-1.65.106-6.44.958-10.379,7.292-11.709,9.846m-19.373-9.9a10.175,10.175,0,0,0-10.432,9.9,10.21,10.21,0,0,0,10.432,9.9c.532,0,1.118-.053,1.7-.106,6.387-.9,10.325-7.238,11.656-9.74C27.889,12.774,23.95,6.44,17.564,5.535c-.585-.053-1.118-.106-1.7-.106" transform="translate(506.7 1369)"/><rect class="a" width="9.527" height="3.087" transform="translate(518.196 1382.838)"/><path class="a" d="M90.927,23.147H87.68V19.9H84.593v3.247H81.4V26.18h3.193v3.247H87.68V26.18h3.247Z" transform="translate(468.624 1359.691)"/></g></svg>
