<svg xmlns="http://www.w3.org/2000/svg" viewBox="1165 638 34 24"><defs><style>.a{fill:none;}.b{fill:#fff;}</style></defs><g transform="translate(1165 638)"><path class="a" d="M26.5,12a.354.354,0,0,0-.4.4v8.2a.354.354,0,0,0,.4.4h6a.354.354,0,0,0,.4-.4V12.3a.367.367,0,0,0-.1-.3c-.1-.1-.2,0-.3,0h-6Z"/><path class="a" d="M28.4,10.7a.215.215,0,0,0,.2.2h1.8a.2.2,0,1,0,0-.4H28.6C28.4,10.5,28.4,10.6,28.4,10.7Z"/><path class="a" d="M25.4,9.4A1.5,1.5,0,0,1,26.5,9H28V2.5a.6.6,0,0,0-.1-.4.6.6,0,0,0-.4-.1H2.5a.6.6,0,0,0-.4.1.6.6,0,0,0-.1.4v15a.6.6,0,0,0,.1.4.6.6,0,0,0,.4.1H25V10.5A1.5,1.5,0,0,1,25.4,9.4Z"/><path class="a" d="M29.5,21.6a1.025,1.025,0,1,0,.7.3A.908.908,0,0,0,29.5,21.6Z"/><path class="b" d="M33.6,9.4A1.5,1.5,0,0,0,32.5,9H30V2.5A2.4,2.4,0,0,0,27.5,0H2.5A2.4,2.4,0,0,0,0,2.5v15A2.4,2.4,0,0,0,2.5,20H14v2H8.5a.6.6,0,0,0-.4.1.6.6,0,0,0-.1.4v1a.6.6,0,0,0,.1.4.6.6,0,0,0,.4.1h13a.6.6,0,0,0,.4-.1c.1-.1.1-.2.1-.4v-1a.4.4,0,0,0-.5-.5H16V20h9v2.5a1.5,1.5,0,0,0,.4,1.1,1.366,1.366,0,0,0,1.1.4h6a1.5,1.5,0,0,0,1.1-.4,1.366,1.366,0,0,0,.4-1.1v-12A1.5,1.5,0,0,0,33.6,9.4Zm-3.2,1.1a.2.2,0,1,1,0,.4H28.6a.2.2,0,1,1,0-.4h1.8ZM2.5,18a.6.6,0,0,1-.4-.1.6.6,0,0,1-.1-.4V2.5a.6.6,0,0,1,.1-.4A.6.6,0,0,1,2.5,2h25a.6.6,0,0,1,.4.1.6.6,0,0,1,.1.4V9H26.5A1.384,1.384,0,0,0,25,10.5V18Zm27.7,5.2a.967.967,0,1,1,.3-.7A1.493,1.493,0,0,1,30.2,23.2Zm2.7-2.6a.354.354,0,0,1-.4.4h-6a.354.354,0,0,1-.4-.4V12.4a.354.354,0,0,1,.4-.4h6a.354.354,0,0,1,.4.4v8.2Z"/></g></svg>
