<?xml version="1.0" encoding="utf-8"?>
<!-- Generator: Adobe Illustrator 24.0.1, SVG Export Plug-In . SVG Version: 6.00 Build 0)  -->
<svg version="1.1" id="Layer_1" xmlns="http://www.w3.org/2000/svg" xmlns:xlink="http://www.w3.org/1999/xlink" x="0px" y="0px"
	 viewBox="0 0 23.4 26" style="enable-background:new 0 0 23.4 26;" xml:space="preserve">
<style type="text/css">
	.st0{fill:none;stroke:#FFFFFF;}
</style>
<path class="st0" d="M38.6,3.7c-0.2,0-5.3,0-5.3,0l-3,8.7l3.4-0.6l-4.5,7.4l3-0.9l-4.3,7.3l8.5-8.6l-3.1,0.1l4-6.4l-4,0L38.6,3.7z"
	/>
<path class="st0" d="M-27.5-2.8c-4.4,4.7-5.7,6.5-5.7,6.5l7.8-1.5l1.9,5.5c0,0,5.9-5.9,5.5-5.9s-2.1-1.4-3.6-1.8s-4.1-2.1-4.1-2.1"
	/>
<polygon class="st0" points="12.1,1.5 8,13.6 10.8,14.2 7.5,25.6 14.8,12.3 11.9,11.6 14.8,0.9 "/>
</svg>
