<?xml version="1.0" encoding="utf-8"?>
<!-- Generator: Adobe Illustrator 25.0.1, SVG Export Plug-In . SVG Version: 6.00 Build 0)  -->
<svg version="1.1" id="Layer_1" xmlns="http://www.w3.org/2000/svg" xmlns:xlink="http://www.w3.org/1999/xlink" x="0px" y="0px"
	 viewBox="0 0 980 889.7" style="enable-background:new 0 0 980 889.7;" xml:space="preserve">
<style type="text/css">
	.st0{fill:#FFFFFF;}
</style>
<g>
	<g id="_x35_151e0c8492e5103c096af88a51fbe2a">
		<path class="st0" d="M657.2,1.4V0c-0.2,0-0.4,0-0.6,0c-2.5,0-5,0.2-7.4,0.6c-3.9,0.2-7.6,1.3-11.4,3.2
			c-28.2,11.6-50.4,48.5-77.2,93.2c-39.3,65.5-88.2,147-172.1,167.4c-33.1,8.1-72.2,54.9-109.4,102.3c-3.4,4.3-6.5,8.3-9.3,11.8
			l-0.9,1.1L0,490.8l218,153.4c91.5-43,119.5,39.3,195.3,245.5c152.5-17,254.8-260.7,339.8-276.8C858.5,593,867.3,673.7,980,743.3
			C866.8,498.3,746.6,24.3,657.2,1.4z M328.9,560.6L220,615.8L50.5,496.4L279,401.9l44.3,33l67.9,51.5
			C372.3,512.7,351.6,537.7,328.9,560.6z M405.8,465.6l-67.6-50.3l-41.5-31.4c0.5-0.7,1.1-1.4,1.6-2.1c23.9-30.4,68.3-86.9,96-93.6
			c77.1-18.8,125.8-80.5,163.8-140.3C521.5,240.3,476,361.2,405.8,465.6z"/>
	</g>
</g>
</svg>
