<svg xmlns="http://www.w3.org/2000/svg" viewBox="-451.344 1055.123 29.844 21.699"><defs><style>.a,.b{fill:#fff;}.a{stroke:rgba(0,0,0,0);}</style></defs><path class="a" d="M13.2,11.846a4.344,4.344,0,0,1-.422-.263,5.941,5.941,0,0,0-1.07-.527,3.612,3.612,0,0,0-2.709,0,5.756,5.756,0,0,0-1.064.527,3.039,3.039,0,0,1-.427.263q-.19,0-.985-.79t-.8-.98a.333.333,0,0,1,.105-.242A5.753,5.753,0,0,1,7.894,8.558a6.734,6.734,0,0,1,4.911,0,5.753,5.753,0,0,1,2.066,1.275.333.333,0,0,1,.105.242q0,.19-.8.98T13.2,11.846Zm2.877-2.867A.44.44,0,0,1,15.83,8.9a12.464,12.464,0,0,0-2.656-1.628,7.145,7.145,0,0,0-2.825-.522,7.187,7.187,0,0,0-1.8.232,8.309,8.309,0,0,0-1.57.559,13.6,13.6,0,0,0-1.2.653q-.527.327-.833.559a2.607,2.607,0,0,1-.327.232q-.179,0-.97-.79t-.79-.98a.322.322,0,0,1,.105-.232A9.628,9.628,0,0,1,6.345,4.816a10.808,10.808,0,0,1,8.01,0,9.628,9.628,0,0,1,3.373,2.161.322.322,0,0,1,.105.232q0,.19-.79.98T16.072,8.979Zm2.856-2.856a.367.367,0,0,1-.232-.095,14.152,14.152,0,0,0-3.915-2.493A11.5,11.5,0,0,0,10.35,2.7a11.5,11.5,0,0,0-4.432.838A14.152,14.152,0,0,0,2,6.028a.367.367,0,0,1-.232.095q-.179,0-.975-.79T0,4.353A.333.333,0,0,1,.105,4.11,13.713,13.713,0,0,1,4.8,1.075a14.886,14.886,0,0,1,11.108,0,13.713,13.713,0,0,1,4.69,3.035.333.333,0,0,1,.105.242q0,.19-.8.98T18.928,6.123Z" transform="translate(-450.844 1076.322) rotate(-90)"/><path class="a" d="M13.2,11.846a4.344,4.344,0,0,1-.422-.263,5.941,5.941,0,0,0-1.07-.527,3.612,3.612,0,0,0-2.709,0,5.756,5.756,0,0,0-1.064.527,3.039,3.039,0,0,1-.427.263q-.19,0-.985-.79t-.8-.98a.333.333,0,0,1,.105-.242A5.753,5.753,0,0,1,7.894,8.558a6.734,6.734,0,0,1,4.911,0,5.753,5.753,0,0,1,2.066,1.275.333.333,0,0,1,.105.242q0,.19-.8.98T13.2,11.846Zm2.877-2.867A.44.44,0,0,1,15.83,8.9a12.464,12.464,0,0,0-2.656-1.628,7.145,7.145,0,0,0-2.825-.522,7.187,7.187,0,0,0-1.8.232,8.309,8.309,0,0,0-1.57.559,13.6,13.6,0,0,0-1.2.653q-.527.327-.833.559a2.607,2.607,0,0,1-.327.232q-.179,0-.97-.79t-.79-.98a.322.322,0,0,1,.105-.232A9.628,9.628,0,0,1,6.345,4.816a10.808,10.808,0,0,1,8.01,0,9.628,9.628,0,0,1,3.373,2.161.322.322,0,0,1,.105.232q0,.19-.79.98T16.072,8.979Zm2.856-2.856a.367.367,0,0,1-.232-.095,14.152,14.152,0,0,0-3.915-2.493A11.5,11.5,0,0,0,10.35,2.7a11.5,11.5,0,0,0-4.432.838A14.152,14.152,0,0,0,2,6.028a.367.367,0,0,1-.232.095q-.179,0-.975-.79T0,4.353A.333.333,0,0,1,.105,4.11,13.713,13.713,0,0,1,4.8,1.075a14.886,14.886,0,0,1,11.108,0,13.713,13.713,0,0,1,4.69,3.035.333.333,0,0,1,.105.242q0,.19-.8.98T18.928,6.123Z" transform="translate(-422 1055.623) rotate(90)"/><ellipse class="b" cx="2.361" cy="2.361" rx="2.361" ry="2.361" transform="translate(-433.983 1063.679) rotate(90)"/></svg>