<svg xmlns="http://www.w3.org/2000/svg" xmlns:xlink="http://www.w3.org/1999/xlink" viewBox="-1343 1165 464 466">
  <defs>
    <style>
      .cls-1 {
        fill: #ff9e00;
      }

      .cls-2 {
        fill: #fff;
      }

      .cls-3, .cls-4 {
        fill: #656565;
        font-size: 21px;
        font-family: ArialMT, Arial;
      }

      .cls-4 {
        opacity: 0.8;
      }

      .cls-5 {
        filter: url(#Subtraction_2-8);
      }

      .cls-6 {
        filter: url(#Subtraction_2-7);
      }

      .cls-7 {
        filter: url(#Subtraction_2-6);
      }

      .cls-8 {
        filter: url(#Subtraction_2-5);
      }

      .cls-9 {
        filter: url(#Subtraction_2-4);
      }

      .cls-10 {
        filter: url(#Subtraction_2-3);
      }

      .cls-11 {
        filter: url(#Subtraction_2-2);
      }

      .cls-12 {
        filter: url(#Subtraction_2);
      }
    </style>
    <filter id="Subtraction_2" x="-1103.458" y="1328.6" width="46.916" height="63.301" filterUnits="userSpaceOnUse">
      <feOffset dy="3" input="SourceAlpha"/>
      <feGaussianBlur stdDeviation="3" result="blur"/>
      <feFlood flood-opacity="0.161"/>
      <feComposite operator="in" in2="blur"/>
      <feComposite in="SourceGraphic"/>
    </filter>
    <filter id="Subtraction_2-2" x="-1106.458" y="1223.6" width="46.916" height="63.301" filterUnits="userSpaceOnUse">
      <feOffset dy="3" input="SourceAlpha"/>
      <feGaussianBlur stdDeviation="3" result="blur-2"/>
      <feFlood flood-opacity="0.161"/>
      <feComposite operator="in" in2="blur-2"/>
      <feComposite in="SourceGraphic"/>
    </filter>
    <filter id="Subtraction_2-3" x="-1000.457" y="1278.6" width="46.916" height="63.301" filterUnits="userSpaceOnUse">
      <feOffset dy="3" input="SourceAlpha"/>
      <feGaussianBlur stdDeviation="3" result="blur-3"/>
      <feFlood flood-opacity="0.161"/>
      <feComposite operator="in" in2="blur-3"/>
      <feComposite in="SourceGraphic"/>
    </filter>
    <filter id="Subtraction_2-4" x="-1106.458" y="1487.6" width="46.916" height="63.301" filterUnits="userSpaceOnUse">
      <feOffset dy="3" input="SourceAlpha"/>
      <feGaussianBlur stdDeviation="3" result="blur-4"/>
      <feFlood flood-opacity="0.161"/>
      <feComposite operator="in" in2="blur-4"/>
      <feComposite in="SourceGraphic"/>
    </filter>
    <filter id="Subtraction_2-5" x="-936.457" y="1260.6" width="46.916" height="63.301" filterUnits="userSpaceOnUse">
      <feOffset dy="3" input="SourceAlpha"/>
      <feGaussianBlur stdDeviation="3" result="blur-5"/>
      <feFlood flood-opacity="0.161"/>
      <feComposite operator="in" in2="blur-5"/>
      <feComposite in="SourceGraphic"/>
    </filter>
    <filter id="Subtraction_2-6" x="-1227.458" y="1397.6" width="46.916" height="63.301" filterUnits="userSpaceOnUse">
      <feOffset dy="3" input="SourceAlpha"/>
      <feGaussianBlur stdDeviation="3" result="blur-6"/>
      <feFlood flood-opacity="0.161"/>
      <feComposite operator="in" in2="blur-6"/>
      <feComposite in="SourceGraphic"/>
    </filter>
    <filter id="Subtraction_2-7" x="-1278.458" y="1305.6" width="46.916" height="63.301" filterUnits="userSpaceOnUse">
      <feOffset dy="3" input="SourceAlpha"/>
      <feGaussianBlur stdDeviation="3" result="blur-7"/>
      <feFlood flood-opacity="0.161"/>
      <feComposite operator="in" in2="blur-7"/>
      <feComposite in="SourceGraphic"/>
    </filter>
    <filter id="Subtraction_2-8" x="-1067.458" y="1373.6" width="46.916" height="63.301" filterUnits="userSpaceOnUse">
      <feOffset dy="3" input="SourceAlpha"/>
      <feGaussianBlur stdDeviation="3" result="blur-8"/>
      <feFlood flood-opacity="0.161"/>
      <feComposite operator="in" in2="blur-8"/>
      <feComposite in="SourceGraphic"/>
    </filter>
  </defs>
  <g id="pins" transform="translate(377 88)">
    <image id="bundleSvg" width="464" height="466" transform="translate(-1720 1077)" xlink:href="bundleSvg.jpg"/>
    <g id="Group_54" data-name="Group 54" transform="translate(-2419.458 -102.4)">
      <g id="Group_16" data-name="Group 16" transform="translate(947.999 1349)">
        <g class="cls-12" transform="matrix(1, 0, 0, 1, 1094.46, -1334.6)">
          <path id="Subtraction_2-9" data-name="Subtraction 2" class="cls-1" d="M14.458,45.3C10.483,45.3,0,28.251,0,14.618v-.136a14.458,14.458,0,1,1,28.915-.024v.16C28.916,30.041,18.286,45.3,14.458,45.3Zm0-42.088A11.245,11.245,0,1,0,25.7,14.458,11.258,11.258,0,0,0,14.459,3.213Z" transform="translate(-1094.46 1334.6)"/>
        </g>
        <circle id="Ellipse_3" data-name="Ellipse 3" class="cls-2" cx="11.851" cy="11.851" r="11.851" transform="translate(2.608 2.606)"/>
      </g>
      <text id="_8" data-name="8" class="cls-3" transform="translate(956.033 1371)"><tspan x="0" y="0">8</tspan></text>
    </g>
    <g id="Group_50" data-name="Group 50" transform="translate(-2422.458 -207.4)">
      <g id="Group_16-2" data-name="Group 16" transform="translate(947.999 1349)">
        <g class="cls-11" transform="matrix(1, 0, 0, 1, 1097.46, -1229.6)">
          <path id="Subtraction_2-10" data-name="Subtraction 2" class="cls-1" d="M14.458,45.3C10.483,45.3,0,28.251,0,14.618v-.136a14.458,14.458,0,1,1,28.915-.024v.16C28.916,30.041,18.286,45.3,14.458,45.3Zm0-42.088A11.245,11.245,0,1,0,25.7,14.458,11.258,11.258,0,0,0,14.459,3.213Z" transform="translate(-1097.46 1229.6)"/>
        </g>
        <circle id="Ellipse_3-2" data-name="Ellipse 3" class="cls-2" cx="11.851" cy="11.851" r="11.851" transform="translate(2.608 2.606)"/>
      </g>
      <text id="_7" data-name="7" class="cls-4" transform="translate(956.033 1371)"><tspan x="0" y="0">7</tspan></text>
    </g>
    <g id="Group_51" data-name="Group 51" transform="translate(-2316.458 -152.4)">
      <g id="Group_16-3" data-name="Group 16" transform="translate(947.999 1349)">
        <g class="cls-10" transform="matrix(1, 0, 0, 1, 991.46, -1284.6)">
          <path id="Subtraction_2-11" data-name="Subtraction 2" class="cls-1" d="M14.458,45.3C10.483,45.3,0,28.251,0,14.618v-.136a14.458,14.458,0,1,1,28.915-.024v.16C28.916,30.041,18.286,45.3,14.458,45.3Zm0-42.088A11.245,11.245,0,1,0,25.7,14.458,11.258,11.258,0,0,0,14.459,3.213Z" transform="translate(-991.46 1284.6)"/>
        </g>
        <circle id="Ellipse_3-3" data-name="Ellipse 3" class="cls-2" cx="11.851" cy="11.851" r="11.851" transform="translate(2.608 2.606)"/>
      </g>
      <text id="_6" data-name="6" class="cls-3" transform="translate(956.033 1371)"><tspan x="0" y="0">6</tspan></text>
    </g>
    <g id="Group_56" data-name="Group 56" transform="translate(-2422.458 56.6)">
      <g id="Group_16-4" data-name="Group 16" transform="translate(947.999 1349)">
        <g class="cls-9" transform="matrix(1, 0, 0, 1, 1097.46, -1493.6)">
          <path id="Subtraction_2-12" data-name="Subtraction 2" class="cls-1" d="M14.458,45.3C10.483,45.3,0,28.251,0,14.618v-.136a14.458,14.458,0,1,1,28.915-.024v.16C28.916,30.041,18.286,45.3,14.458,45.3Zm0-42.088A11.245,11.245,0,1,0,25.7,14.458,11.258,11.258,0,0,0,14.459,3.213Z" transform="translate(-1097.46 1493.6)"/>
        </g>
        <circle id="Ellipse_3-4" data-name="Ellipse 3" class="cls-2" cx="11.851" cy="11.851" r="11.851" transform="translate(2.608 2.606)"/>
      </g>
      <text id="_5" data-name="5" class="cls-3" transform="translate(956.033 1371)"><tspan x="0" y="0">5</tspan></text>
    </g>
    <g id="Group_53" data-name="Group 53" transform="translate(-2252.458 -170.4)">
      <g id="Group_16-5" data-name="Group 16" transform="translate(947.999 1349)">
        <g class="cls-8" transform="matrix(1, 0, 0, 1, 927.46, -1266.6)">
          <path id="Subtraction_2-13" data-name="Subtraction 2" class="cls-1" d="M14.458,45.3C10.483,45.3,0,28.251,0,14.618v-.136a14.458,14.458,0,1,1,28.915-.024v.16C28.916,30.041,18.286,45.3,14.458,45.3Zm0-42.088A11.245,11.245,0,1,0,25.7,14.458,11.258,11.258,0,0,0,14.459,3.213Z" transform="translate(-927.46 1266.6)"/>
        </g>
        <circle id="Ellipse_3-5" data-name="Ellipse 3" class="cls-2" cx="11.851" cy="11.851" r="11.851" transform="translate(2.608 2.606)"/>
      </g>
      <text id="_4" data-name="4" class="cls-3" transform="translate(956.033 1371)"><tspan x="0" y="0">4</tspan></text>
    </g>
    <g id="Group_52" data-name="Group 52" transform="translate(-2543.458 -33.4)">
      <g id="Group_16-6" data-name="Group 16" transform="translate(947.999 1349)">
        <g class="cls-7" transform="matrix(1, 0, 0, 1, 1218.46, -1403.6)">
          <path id="Subtraction_2-14" data-name="Subtraction 2" class="cls-1" d="M14.458,45.3C10.483,45.3,0,28.251,0,14.618v-.136a14.458,14.458,0,1,1,28.915-.024v.16C28.916,30.041,18.286,45.3,14.458,45.3Zm0-42.088A11.245,11.245,0,1,0,25.7,14.458,11.258,11.258,0,0,0,14.459,3.213Z" transform="translate(-1218.46 1403.6)"/>
        </g>
        <circle id="Ellipse_3-6" data-name="Ellipse 3" class="cls-2" cx="11.851" cy="11.851" r="11.851" transform="translate(2.608 2.606)"/>
      </g>
      <text id="_3" data-name="3" class="cls-3" transform="translate(956.033 1371)"><tspan x="0" y="0">3</tspan></text>
    </g>
    <g id="Group_55" data-name="Group 55" transform="translate(-2594.458 -125.4)">
      <g id="Group_16-7" data-name="Group 16" transform="translate(947.999 1349)">
        <g class="cls-6" transform="matrix(1, 0, 0, 1, 1269.46, -1311.6)">
          <path id="Subtraction_2-15" data-name="Subtraction 2" class="cls-1" d="M14.458,45.3C10.483,45.3,0,28.251,0,14.618v-.136a14.458,14.458,0,1,1,28.915-.024v.16C28.916,30.041,18.286,45.3,14.458,45.3Zm0-42.088A11.245,11.245,0,1,0,25.7,14.458,11.258,11.258,0,0,0,14.459,3.213Z" transform="translate(-1269.46 1311.6)"/>
        </g>
        <circle id="Ellipse_3-7" data-name="Ellipse 3" class="cls-2" cx="11.851" cy="11.851" r="11.851" transform="translate(2.608 2.606)"/>
      </g>
      <text id="_2" data-name="2" class="cls-3" transform="translate(956.033 1371)"><tspan x="0" y="0">2</tspan></text>
    </g>
    <g id="Group_49" data-name="Group 49" transform="translate(-2383.458 -57.4)">
      <g id="Group_16-8" data-name="Group 16" transform="translate(947.999 1349)">
        <g class="cls-5" transform="matrix(1, 0, 0, 1, 1058.46, -1379.6)">
          <path id="Subtraction_2-16" data-name="Subtraction 2" class="cls-1" d="M14.458,45.3C10.483,45.3,0,28.251,0,14.618v-.136a14.458,14.458,0,1,1,28.915-.024v.16C28.916,30.041,18.286,45.3,14.458,45.3Zm0-42.088A11.245,11.245,0,1,0,25.7,14.458,11.258,11.258,0,0,0,14.459,3.213Z" transform="translate(-1058.46 1379.6)"/>
        </g>
        <circle id="Ellipse_3-8" data-name="Ellipse 3" class="cls-2" cx="11.851" cy="11.851" r="11.851" transform="translate(2.608 2.606)"/>
      </g>
      <text id="_1" data-name="1" class="cls-3" transform="translate(956.033 1371)"><tspan x="0" y="0">1</tspan></text>
    </g>
  </g>
</svg>
